<?xml version="1.0" encoding="utf-8"?>
<!-- Generator: Adobe Illustrator 25.0.0, SVG Export Plug-In . SVG Version: 6.00 Build 0)  -->
<svg version="1.1" id="Layer_1" xmlns="http://www.w3.org/2000/svg" xmlns:xlink="http://www.w3.org/1999/xlink" x="0px" y="0px"
	 width="150px" height="150px" viewBox="0 0 150 150" style="enable-background:new 0 0 150 150;" xml:space="preserve">
<style type="text/css">
	.st0{fill:url(#SVGID_1_);}
	.st1{fill:#FFFAF9;}
	.st2{fill:none;}
	.st3{fill:#FFFFFF;}
</style>
	<g id="layer_x5F_2">

		<linearGradient id="SVGID_1_" gradientUnits="userSpaceOnUse" x1="7347.3174" y1="7317.4531" x2="7368.1016" y2="5561.1392" gradientTransform="matrix(7.110000e-02 0 0 7.110000e-02 -448.2121 -377.4283)">
		<stop  offset="0" style="stop-color:#967354"/>
			<stop  offset="1" style="stop-color:#C9AA7F"/>
	</linearGradient>
		<path class="st0" d="M122.9,0H27.1C12.2,0,0,12.2,0,27.1v95.8C0,137.8,12.2,150,27.1,150h95.8c14.9,0,27.1-12.2,27.1-27.1V27.1
		C150,12.2,137.8,0,122.9,0z"/>
		<path class="st1" d="M87.5,93.9l0-49.1l12.6,7.6V62l4.8,2.1v6V85v7.3v0.6c0.3-0.2,0.5-0.5,0.8-0.8c11.7-11.7,15.3-28.5,10.8-43.3
		c2,9.2,0.5,18.9-4.3,27.2v-5.9h-7.3h-1.8v16.4v5.8v2.2c-1,0.8-2,1.6-3.1,2.4v-4.6v-3.6V62l-4.8,2.1v27.2l0,0v8.5
		c-2.5,1.3-5.1,2.4-7.8,3.2L87.5,93.9L87.5,93.9L87.5,93.9z M44.3,30.7C56,19,72.8,15.4,87.6,19.9c-12.2-2.6-25.4,0.8-34.9,10.2
		C40.1,42.7,38.3,62,47.2,76.5v-6.4h7.4h1.8v16.7v6.2v7.5c1,0.5,2,0.9,3,1.3v-8.8V89V62.2l4.8,2.1v27.2l0,0v11.9
		c3.5,0.9,7.1,1.3,10.7,1.3v-2.1v-8.2V55.3l-0.3-27.2l12.9,7.7l-0.1,9l-6.2,3.7v0v10.1l-6.4-3.3l-7,2.9l0.1-16.8l-8.6,5.4v15.3
		l-4.8,2.1v5.9v15.2V93v6.6c-3.7-2-7.1-4.5-10.2-7.6C27.4,75.1,27.4,47.6,44.3,30.7L44.3,30.7z"/>
		<g>
		<rect y="107.2" class="st2" width="150" height="35"/>
			<path class="st3" d="M22.5,133.7v-18h4.1l1.3,7.1l0.5,8.7h0.5l0.5-8.7l1.3-7.1h4.1v18h-2.4v-5.4l0.5-10.4h-0.6l-1.1,10.6l-1.1,5.2
			h-2.8l-1.1-5.2L25,117.9h-0.5l0.4,10.4v5.4H22.5z"/>
			<path class="st3" d="M36.8,133.7v-18h6.5v2.2h-4v5.6H43v2.2h-3.8v5.9h4v2.2L36.8,133.7L36.8,133.7z"/>
			<path class="st3" d="M48.5,133.9c-1.4,0-2.3-0.3-2.9-0.9c-0.6-0.6-0.9-1.5-0.9-2.9c-0.1-4.8-0.1-9.6,0-14.5H47
			c0,2.4-0.1,4.9-0.1,7.4s0,5,0,7.4c0,0.8,0.5,1.3,1.4,1.3c0.9,0,1.4-0.4,1.4-1.3c0-2.4,0-4.9,0-7.4s0-5,0-7.4h2.4
			c0.1,4.8,0.1,9.7,0,14.5c0,1.4-0.3,2.3-0.9,2.9C50.8,133.6,49.8,133.9,48.5,133.9z"/>
			<path class="st3" d="M61.4,133.9c-0.9,0-1.5-0.2-1.9-0.6s-0.6-1.1-0.6-2c0-1.6,0-3-0.1-4.4c0-1.4,0-2.8,0-4.2s0-2.9,0.1-4.4
			c0-0.9,0.2-1.5,0.6-1.9s1-0.6,1.8-0.6c0.9,0,1.5,0.2,1.9,0.6c0.4,0.4,0.6,1,0.6,1.9c0,0.3,0,0.7,0,1.1c0,0.4,0,0.9,0,1.4
			c0,0.5,0,0.8,0,1.1h-1c0-0.6,0-1.3,0-1.9c0-0.7,0-1.3,0-1.9c0-0.6-0.1-1-0.4-1.2s-0.6-0.3-1.2-0.3c-0.5,0-0.8,0.1-1,0.3
			c-0.2,0.2-0.3,0.6-0.3,1.2c0,1.6-0.1,3.1-0.1,4.6c0,1.4,0,2.8,0,4.3c0,1.4,0,2.9,0.1,4.5c0,0.6,0.1,1,0.3,1.2
			c0.2,0.2,0.6,0.4,1.1,0.4c0.6,0,1-0.1,1.2-0.4s0.4-0.6,0.4-1.2c0-0.7,0-1.3,0-2.1c0-0.7,0-1.4,0-2.1h1c0,0.7,0,1.4,0,2s0,1.3,0,2
			c0,0.9-0.2,1.6-0.6,2C63,133.7,62.3,133.9,61.4,133.9z"/>
			<path class="st3" d="M68.6,133.9c-0.9,0-1.5-0.2-1.9-0.6c-0.4-0.4-0.6-1.1-0.6-1.9c0-1.5-0.1-3-0.1-4.5c0-1.4,0-2.8,0-4.3
			s0-2.9,0.1-4.5c0-0.9,0.2-1.6,0.6-1.9s1-0.6,1.9-0.6s1.5,0.2,1.9,0.6c0.4,0.4,0.6,1.1,0.6,1.9c0,1.6,0,3,0,4.5s0,2.8,0,4.3
			c0,1.4,0,2.9,0,4.5c0,0.9-0.2,1.6-0.6,1.9S69.5,133.9,68.6,133.9z M68.6,133c0.5,0,0.9-0.1,1.1-0.3c0.2-0.2,0.3-0.6,0.4-1.2
			c0.1-2.4,0.1-4.6,0.1-6.8c0-2.2,0-4.4-0.1-6.7c0-0.6-0.2-1-0.4-1.2s-0.6-0.3-1.1-0.3s-0.9,0.1-1.1,0.3s-0.3,0.6-0.4,1.2
			c-0.1,2.3-0.1,4.5-0.1,6.7s0,4.4,0.1,6.8c0,0.5,0.1,0.9,0.4,1.2C67.7,132.9,68.1,133,68.6,133z"/>
			<path class="st3" d="M73.5,133.7v-18h2l0.9,5.7l1.6,11.4h0.5l-0.2-10.9l-0.1-6.2h1v18h-2l-1-6.6l-1.4-10.5h-0.5l0.1,10.1l0.1,6.9
			L73.5,133.7L73.5,133.7z"/>
			<path class="st3" d="M81.8,133.7v-18h2.5c0.9,0,1.5,0.2,1.9,0.6c0.4,0.4,0.6,1.1,0.6,2c0,1.5,0,3,0.1,4.3c0,1.4,0,2.7,0,4.1
			c0,1.4,0,2.8-0.1,4.4c0,0.9-0.2,1.6-0.6,2c-0.4,0.4-1,0.6-1.9,0.6L81.8,133.7L81.8,133.7z M82.8,132.8h1.4c0.5,0,0.9-0.1,1.1-0.4
			c0.2-0.2,0.4-0.7,0.4-1.2c0.1-4.3,0.1-8.6,0-13c0-0.5-0.2-0.9-0.4-1.2c-0.2-0.2-0.6-0.4-1.1-0.4h-1.4V132.8z"/>
			<path class="st3" d="M91.6,133.9c-0.9,0-1.5-0.2-1.9-0.6c-0.4-0.4-0.6-1.1-0.6-1.9c0-1.5-0.1-3-0.1-4.5c0-1.4,0-2.8,0-4.3
			s0-2.9,0.1-4.5c0-0.9,0.2-1.6,0.6-1.9c0.4-0.4,1-0.6,1.9-0.6s1.5,0.2,1.9,0.6c0.4,0.4,0.6,1.1,0.6,1.9c0,1.6,0,3,0,4.5
			s0,2.8,0,4.3c0,1.4,0,2.9,0,4.5c0,0.9-0.2,1.6-0.6,1.9C93.1,133.7,92.5,133.9,91.6,133.9z M91.6,133c0.5,0,0.9-0.1,1.1-0.3
			c0.2-0.2,0.3-0.6,0.4-1.2c0.1-2.4,0.1-4.6,0.1-6.8c0-2.2,0-4.4-0.1-6.7c0-0.6-0.2-1-0.4-1.2c-0.2-0.2-0.6-0.3-1.1-0.3
			c-0.5,0-0.9,0.1-1.1,0.3c-0.2,0.2-0.3,0.6-0.4,1.2c-0.1,2.3-0.1,4.5-0.1,6.7s0,4.4,0.1,6.8c0,0.5,0.1,0.9,0.4,1.2
			C90.7,132.9,91,133,91.6,133z"/>
			<path class="st3" d="M96.4,133.7v-18h2.1l1,7.5l0.8,9.5h0.4l0.8-9.5l1-7.5h2.1v18h-1.1v-5.4l0.2-11.6h-0.5l-1.3,11.9l-0.7,5h-1.6
			l-0.7-5l-1.3-11.9h-0.5l0.2,11.6v5.4H96.4z"/>
			<path class="st3" d="M107.1,133.7v-18h1v18H107.1z M107.2,114.8l1.4-2.4h0.8l-1.4,2.4H107.2z"/>
			<path class="st3" d="M110.7,133.7v-18h2l0.9,5.7l1.6,11.4h0.5l-0.2-10.9l-0.1-6.2h1v18h-2l-1-6.6l-1.4-10.5h-0.5l0.1,10.1l0.1,6.9
			L110.7,133.7L110.7,133.7z"/>
			<path class="st3" d="M118.9,133.7v-18h1v18H118.9z"/>
			<path class="st3" d="M124.9,133.9c-0.9,0-1.5-0.2-1.9-0.6c-0.4-0.4-0.6-1.1-0.6-1.9c0-1.5-0.1-3-0.1-4.5c0-1.4,0-2.8,0-4.3
			s0-2.9,0.1-4.5c0-0.9,0.2-1.6,0.6-1.9c0.4-0.4,1-0.6,1.9-0.6c0.9,0,1.5,0.2,1.9,0.6c0.4,0.4,0.6,1.1,0.6,1.9c0,1.6,0,3,0,4.5
			s0,2.8,0,4.3c0,1.4,0,2.9,0,4.5c0,0.9-0.2,1.6-0.6,1.9C126.4,133.7,125.8,133.9,124.9,133.9z M124.9,133c0.5,0,0.9-0.1,1.1-0.3
			c0.2-0.2,0.3-0.6,0.4-1.2c0.1-2.4,0.1-4.6,0.1-6.8c0-2.2,0-4.4-0.1-6.7c0-0.6-0.2-1-0.4-1.2c-0.2-0.2-0.6-0.3-1.1-0.3
			c-0.5,0-0.9,0.1-1.1,0.3s-0.3,0.6-0.4,1.2c-0.1,2.3-0.1,4.5-0.1,6.7s0,4.4,0.1,6.8c0,0.5,0.1,0.9,0.4,1.2
			C124,132.9,124.3,133,124.9,133z"/>
	</g>
</g>
	<g id="layer_x5F_1">
</g>
</svg>
