<?xml version="1.0" encoding="utf-8"?>
<!-- Generator: Adobe Illustrator 25.0.0, SVG Export Plug-In . SVG Version: 6.00 Build 0)  -->
<svg version="1.1" id="Layer_1" xmlns="http://www.w3.org/2000/svg" xmlns:xlink="http://www.w3.org/1999/xlink" x="0px" y="0px"
	 width="1221.2px" height="500px" viewBox="0 0 1221.2 500" style="enable-background:new 0 0 1221.2 500;" xml:space="preserve">
<style type="text/css">
	.st0{fill:none;}
	.st1{fill:#C9AA7F;}
	.st2{fill:#3A3734;}
</style>
<g id="layer_x5F_2">
	<g>
		<rect x="471.8" y="177.8" class="st0" width="696.9" height="279.4"/>
		<path class="st1" d="M520.1,406.8c-6.5,0-11.1-1.6-14-4.8c-2.9-3.2-4.4-8.4-4.5-15.7c-0.2-12.7-0.4-24.6-0.5-35.9
			c-0.1-11.2-0.2-22.2-0.2-32.9c0-10.7,0.1-21.7,0.2-32.8c0.1-11.2,0.3-23.1,0.5-35.7c0.1-7.4,1.6-12.7,4.5-15.8
			c2.8-3.1,7.4-4.7,13.8-4.7c6.7,0,11.6,1.6,14.7,4.8c3,3.2,4.7,8.4,4.9,15.7c0.1,3,0.1,7,0.2,12c0,5,0,10,0,15s-0.1,9-0.2,12H535
			c0.2-13,0.2-26,0-38.9c-0.1-6.1-1.2-10.3-3.4-12.6s-6.1-3.5-11.8-3.5c-5.1,0-8.6,1.2-10.6,3.5s-3.1,6.5-3.2,12.6
			c-0.2,12.6-0.4,24.5-0.5,35.7s-0.2,22.1-0.2,32.8c0,10.7,0.1,21.7,0.2,32.9s0.3,23.2,0.5,35.9c0.1,5.9,1.2,10.1,3.3,12.5
			c2.1,2.4,5.6,3.6,10.8,3.6c5.9,0,10-1.2,12.3-3.6s3.5-6.5,3.6-12.5c0.1-7.2,0.2-14.4,0.1-21.5c-0.1-7.2-0.2-14.3-0.3-21.4h4.4
			c0.2,7.7,0.4,14.8,0.4,21.5c0.1,6.6,0,13.8-0.2,21.5c-0.2,7.3-1.9,12.5-5,15.7C532.2,405.2,527.1,406.8,520.1,406.8z"/>
		<path class="st1" d="M581.2,406.6c-6.9,0-11.8-1.5-14.7-4.6s-4.5-8.1-4.6-15.2c-0.3-16.5-0.5-32.2-0.6-47s-0.1-29.6,0-44.4
			s0.3-30.5,0.6-47c0.1-7.2,1.7-12.3,4.6-15.4c2.9-3.1,7.8-4.6,14.7-4.6c7,0,11.9,1.5,14.9,4.6s4.5,8.2,4.5,15.4
			c0.1,16.5,0.2,32.2,0.3,47c0,14.8,0,29.6,0,44.4s-0.1,30.5-0.3,47c0,7-1.5,12.1-4.5,15.2C593.2,405,588.2,406.6,581.2,406.6z
			 M581.2,402.2c5.5,0,9.3-1.1,11.5-3.4c2.2-2.2,3.3-6.3,3.4-12c0.4-16.8,0.6-32.7,0.7-47.6c0.1-15,0-29.8-0.1-44.5
			s-0.3-30.1-0.5-46.3c-0.1-5.9-1.2-10-3.4-12.3c-2.2-2.2-6-3.4-11.5-3.4s-9.3,1.1-11.5,3.4c-2.2,2.2-3.3,6.3-3.5,12.3
			c-0.4,16.1-0.6,31.6-0.7,46.3c-0.1,14.7-0.1,29.5,0.1,44.5c0.1,15,0.3,30.8,0.6,47.6c0.1,5.8,1.3,9.8,3.5,12
			C571.9,401,575.7,402.2,581.2,402.2z"/>
		<path class="st1" d="M625.6,405.5v-176h12.1l7.9,55.4l16.7,116.2h4V229.5h4.4v176h-12.3l-9.5-66l-15-105.6h-4v171.6H625.6z"/>
		<path class="st1" d="M697.1,405.5v-176H716c6.6,0,11.4,1.6,14.4,4.8s4.5,8.4,4.6,15.7c0.2,16.1,0.4,31.4,0.4,45.9
			c0.1,14.5,0.1,28.9,0,43.4c-0.1,14.4-0.2,29.7-0.4,45.8c-0.1,7.3-1.6,12.5-4.6,15.7s-7.8,4.8-14.6,4.8L697.1,405.5L697.1,405.5z
			 M701.5,401.1h14.3c5.3,0,9-1.2,11.3-3.7c2.2-2.5,3.4-6.6,3.5-12.3c0.4-45,0.4-90.1,0-135.1c-0.1-5.7-1.2-9.8-3.4-12.3
			s-5.9-3.7-11.1-3.7h-14.5L701.5,401.1L701.5,401.1z"/>
		<path class="st1" d="M778.2,406.6c-6.9,0-11.8-1.5-14.7-4.6s-4.5-8.1-4.6-15.2c-0.3-16.5-0.5-32.2-0.6-47s-0.1-29.6,0-44.4
			s0.3-30.5,0.6-47c0.1-7.2,1.7-12.3,4.6-15.4c2.9-3.1,7.8-4.6,14.7-4.6c7,0,11.9,1.5,14.9,4.6s4.5,8.2,4.5,15.4
			c0.1,16.5,0.2,32.2,0.3,47c0,14.8,0,29.6,0,44.4s-0.1,30.5-0.3,47c0,7-1.5,12.1-4.5,15.2C790.2,405,785.2,406.6,778.2,406.6z
			 M778.2,402.2c5.5,0,9.3-1.1,11.5-3.4c2.2-2.2,3.3-6.3,3.4-12c0.4-16.8,0.6-32.7,0.7-47.6c0.1-15,0-29.8-0.1-44.5
			s-0.3-30.1-0.5-46.3c-0.1-5.9-1.2-10-3.4-12.3c-2.2-2.2-6-3.4-11.5-3.4s-9.3,1.1-11.5,3.4c-2.2,2.2-3.3,6.3-3.5,12.3
			c-0.4,16.1-0.6,31.6-0.7,46.3c-0.1,14.7-0.1,29.5,0.1,44.5c0.1,15,0.3,30.8,0.6,47.6c0.1,5.8,1.3,9.8,3.5,12
			C768.9,401,772.7,402.2,778.2,402.2z"/>
		<path class="st1" d="M822.6,405.5v-176h12.3l8.4,75l9.5,95.5h2.9l9.5-95.5l8.4-75h12.3v176h-4.4V233.9h-4l-13,121.9l-4.8,48.6
			h-10.8l-4.8-48.6l-13-121.9h-4v171.6H822.6z"/>
		<path class="st1" d="M911.9,220.7l12.1-21.8h4.6l-12.1,21.8H911.9z M912.1,405.5v-176h4.4v176H912.1z"/>
		<path class="st1" d="M942.9,405.5v-176H955l7.9,55.4l16.7,116.2h4V229.5h4.4v176h-12.3l-9.5-66l-15-105.6h-4v171.6H942.9z"/>
		<path class="st1" d="M1014.4,405.5v-176h4.4v176H1014.4z"/>
		<path class="st1" d="M1063.5,406.6c-6.9,0-11.8-1.5-14.7-4.6c-2.9-3.1-4.5-8.1-4.6-15.2c-0.3-16.5-0.5-32.2-0.6-47
			s-0.1-29.6,0-44.4s0.3-30.5,0.6-47c0.1-7.2,1.7-12.3,4.6-15.4c2.9-3.1,7.8-4.6,14.7-4.6c7,0,11.9,1.5,14.9,4.6s4.5,8.2,4.5,15.4
			c0.1,16.5,0.2,32.2,0.3,47c0,14.8,0,29.6,0,44.4s-0.1,30.5-0.3,47c0,7-1.5,12.1-4.5,15.2C1075.4,405,1070.4,406.6,1063.5,406.6z
			 M1063.5,402.2c5.5,0,9.3-1.1,11.5-3.4c2.2-2.2,3.3-6.3,3.4-12c0.4-16.8,0.6-32.7,0.7-47.6c0.1-15,0-29.8-0.1-44.5
			s-0.3-30.1-0.5-46.3c-0.1-5.9-1.2-10-3.4-12.3c-2.2-2.2-6-3.4-11.5-3.4s-9.3,1.1-11.5,3.4c-2.2,2.2-3.3,6.3-3.5,12.3
			c-0.4,16.1-0.6,31.6-0.7,46.3s-0.1,29.5,0.1,44.5c0.1,15,0.3,30.8,0.6,47.6c0.1,5.8,1.3,9.8,3.5,12
			C1054.1,401,1058,402.2,1063.5,402.2z"/>
		<path class="st1" d="M1123.3,406.6c-6.8,0-11.8-1.6-14.8-4.8c-3.1-3.2-4.7-8.4-5-15.7c-0.1-5.7-0.2-10.7-0.3-15
			c0-4.3,0-8.5,0-12.8s0.1-9.3,0.3-15.1h4.4c-0.4,14.3-0.4,28.6,0,42.9c0.2,5.7,1.5,9.8,3.7,12.3c2.3,2.5,6.1,3.7,11.4,3.7
			s9-1.2,11.2-3.7s3.4-6.6,3.6-12.3c0.1-5.1,0.2-9.4,0.3-13.1c0-3.7,0-7.5-0.1-11.4s-0.1-8.8-0.2-14.6c-0.1-6.8-0.7-12.4-2-16.8
			c-1.2-4.4-4.2-7.1-8.8-8.3l-7.9-2c-4.5-1.1-7.9-2.8-10.1-5.2c-2.2-2.3-3.6-5.6-4.3-9.7c-0.7-4.1-1.1-9.4-1.3-15.9
			c-0.1-5.6-0.1-12.1,0.1-19.5c0.1-7.3,0.2-14.3,0.2-21c0-7.3,1.5-12.4,4.5-15.6c3-3.1,8-4.7,14.9-4.7c6.4,0,11,1.6,13.9,4.8
			s4.4,8.4,4.6,15.7c0.2,9.3,0.2,22.3,0,38.9h-4.4c0.4-13,0.4-26,0-38.9c-0.2-5.7-1.4-9.8-3.5-12.3s-5.7-3.7-10.8-3.7
			c-5.3,0-9,1.2-11.2,3.7s-3.4,6.6-3.6,12.3c-0.2,6.7-0.3,13.4-0.2,20.1c0.1,6.7,0.1,13.4,0.2,20.2c0.1,8.6,0.8,14.7,2,18.5
			c1.2,3.7,4.2,6.2,9,7.5l8.1,2c6.6,1.5,10.7,4.7,12.3,9.4c1.6,4.7,2.5,11.6,2.7,20.5c0.1,6.1,0.2,11.1,0.3,14.9c0,3.9,0,7.6,0,11.1
			c0,3.6-0.1,7.9-0.3,13.1c-0.2,7.3-1.8,12.5-4.8,15.7C1134.4,405,1129.7,406.6,1123.3,406.6z"/>
	</g>
	<path class="st1" d="M312.7,393.1l-0.1-216.4l55.6,33.4v42.5l21.2,9.3v26.5v65.3v32v2.6c1.1-1.1,2.3-2.2,3.4-3.3
		c51.6-51.6,67.5-125.4,47.8-190.6c8.8,40.3,2.4,83.3-19,119.9v-25.9h-32.1h-7.9v72v25.4v9.7c-4.3,3.7-8.8,7.2-13.4,10.4v-20.1
		v-15.7V252.7L347,262l-0.1,119.9l0,0v37.2c-11,5.8-22.5,10.5-34.2,14L312.7,393.1L312.7,393.1L312.7,393.1z M122.5,114.9
		c51.6-51.6,125.4-67.5,190.6-47.8c-53.6-11.6-111.8,3.4-153.5,45c-55.5,55.5-63.7,140.4-24.6,204.6v-28.2h32.5h8.1v73.6v27.4v33.1
		c4.3,2.1,8.7,4,13.2,5.7v-38.8v-18.2V253.4l21.2,9.3v120l0,0v52.5c15.5,4,31.3,6,47.2,6v-9.3v-36.2V223.1l-1.4-119.8l57,33.9
		l-0.4,39.6L285.5,193v-0.1v44.4L257.3,223l-30.9,13l0.3-73.9l-38,23.7v67.6l-21.3,9.3v25.9v66.9v34.1v29
		c-16.2-8.7-31.4-19.8-45-33.4C47.9,310.5,47.9,189.5,122.5,114.9L122.5,114.9z"/>
	<g>
		<rect x="521.8" y="97.8" class="st0" width="699.4" height="178.1"/>
		<path class="st2" d="M531.5,204.8c-0.4,0.1-0.7,0.3-0.9,0.5c-0.3,0.2-0.5,0.4-0.6,0.6c-0.1,0.1-0.1,0.2-0.2,0.3l-2.2,2.4
			c-1.6,1.8-3.3,3.5-5.1,5.2c-1.4,1.5-3,2.7-4.7,3.7c-1.4,0.7-2.7,1.1-4,1.1c-1,0-2-0.3-3-0.9c-2-1.2-3.1-3.2-3.3-6v-0.5
			c0-2,0.3-4,1-5.8c1.2-3.4,2.6-6.6,4.4-9.6c3.5-6.4,8-12.1,13.4-17.1c3.4-3.2,7.4-5.5,12-6.7c1-0.3,1.9-0.4,2.9-0.4
			c0.7,0,1.5,0.1,2.2,0.2c2,0.6,3.2,1.9,3.4,4v0.2c0,3.2-1.2,5.9-3.7,7.9c-0.1,0.1-0.3,0.2-0.4,0.2c-0.1,0-0.3,0-0.3,0
			c-0.1,0-0.3,0-0.4-0.1c-0.2-0.1-0.3-0.3-0.3-0.5s0-0.3,0-0.4v-0.3c0.1-0.4,0.2-0.8,0.3-1.2c0.1-0.1,0.1-0.3,0.2-0.5V181
			c0.1-0.4,0.2-0.7,0.3-0.9c0-0.3,0.1-0.4,0.1-0.5c0-0.3,0-0.5-0.1-0.8c-2.3,0.8-5.2,2.9-8.6,6.4c-3.4,3.4-6.6,7.3-9.5,11.5
			s-4.8,7.9-5.6,11c0.3,0,0.6-0.1,0.8-0.2c0.3-0.1,0.5-0.3,0.7-0.5c0.1-0.1,0.3-0.1,0.3-0.2c3.4-2.3,6.8-4.8,10-7.5
			c0.8-0.7,1.6-1.3,2.3-2c0.5-0.4,1-0.7,1.4-1.1c0.4-0.4,0.9-0.8,1.4-1.2c1.7-1.2,3.1-2.8,4.2-4.6c0.9-1.5,2-2.7,3.5-3.8
			c0.6-0.5,1.1-0.8,1.6-0.9c0.5-0.1,0.8-0.2,0.9-0.2c0.5,0,1,0.1,1.5,0.4c1.2,0.8,1.9,1.9,1.9,3.2c0,0.2,0,0.5-0.1,0.8
			c-0.2,1.6-0.7,3.2-1.3,4.7c-1.2,2.9-2.6,5.7-4.1,8.5c-1.5,2.9-3.2,6-4.8,9.5c-1.7,3.5-3.2,6.7-4.4,9.6c-0.1,0.1-0.1,0.1-0.1,0.2
			c-0.2,0.6-0.3,1-0.3,1.2v0.1c0.1,0.1,0.4,0.2,0.9,0.2h0.5c1.8-0.1,4-0.1,6.8-0.1h4.5c4.9,0.1,10.2,0.3,15.8,0.4
			c5.9,0.1,10.7,0.2,14.6,0.3c3.8,0,6.8,0.1,8.7,0.1h4.9c0.3-0.1,0.6-0.1,1-0.1c0.5-0.1,1.1-0.1,1.6-0.1h0.8c1,0.1,1.8,0.4,2.6,0.9
			c0.1,0.1,0.1,0.1,0.1,0.2c0.4,0.1,0.7,0.3,0.9,0.6s0.3,0.5,0.3,0.8v0.3c-0.1,1.2-0.7,2.1-1.8,2.6c-2.5,1.2-5,1.8-7.5,1.8
			c-1.9,0-3.8-0.3-5.7-1c-2-0.6-6.6-1.1-13.7-1.5c-7.2-0.4-13.8-0.7-19.9-0.8c-6.1-0.1-10.5-0.2-13.2-0.2h-3.2
			c-1.2,0-1.9,0.5-2.3,1.6l-4.4,9.7c-1,2-1.9,4-2.7,5.9c-4,8.9-8.6,17.5-14.1,25.6c-2.3,3.7-5.1,7.2-8.2,10.3
			c-5.6,5.6-12.5,8.4-20.4,8.5c-5.3,0-10-1.7-14-5.1c-5.1-4.5-8.9-9.4-11.4-14.5c-2.6-5.1-3.8-9.9-3.8-14.3c0-1.5,0.1-2.9,0.3-4.3
			c0.9-5.8,4.6-10.8,11.1-15.1c4.7-2.7,9.7-4.7,14.9-5.8c8.1-2,16.2-3.3,24.5-4.1l15.8-1.5c0.6-0.1,1.1-0.1,1.6-0.1
			c0.4,0,0.8-0.1,1.2-0.2c0.3-0.1,0.6-0.4,0.8-0.9c2.4-5.2,5.1-10.7,8-16.5C530.7,206.5,531.1,205.6,531.5,204.8z M470.9,278.7
			c2.5,1.9,5.2,2.9,8.1,2.9c0.6,0,1.2,0,1.8-0.1c3.7-0.4,7-1.8,10-4c3.7-2.9,6.7-6.2,9.2-10.1c8.1-11.6,14.6-24.1,19.6-37.4
			c0.1-0.2,0.1-0.4,0.2-0.5v-0.3c0-0.4-0.1-0.5-0.4-0.5H518l-4.6,0.4l-9.7,0.9c-7.8,0.6-15.5,1.7-23.2,3.3c-5.5,1-10.6,3-15.3,5.9
			c-5.6,3.9-8.5,7.2-8.8,10s-0.4,4.5-0.4,5.3c0,4.1,1.2,8.1,3.7,12.1C462.6,271.1,466.3,275.2,470.9,278.7z"/>
		<path class="st2" d="M554.2,205.6c0.3-7.5,2.6-14.4,7-20.5c3.4-4.6,7.4-8.5,12.2-11.6c3-2,6.3-3.4,9.8-4.1
			c0.8-0.1,1.6-0.2,2.4-0.2c1.4,0,2.8,0.3,4.2,0.8c1.8,0.8,3,1.8,3.5,3s0.7,2.2,0.7,3c0,1-0.2,1.9-0.7,3c-0.8,1.6-1.9,3-3.3,4.3
			c-5.9,5.6-12.8,9-20.9,10.2c-1.1,0.1-1.8,0.7-2.2,1.6c-1.5,3.2-2.5,6.5-2.9,10v0.7c0,0.7,0.1,1.5,0.3,2.2c0.6,1.8,1.8,2.7,3.7,3
			c0.7,0.1,1.3,0.1,2,0.1c2.9,0,5.6-0.5,8.3-1.5c7.1-3,13-6.7,17.7-11.2s8.3-8.3,10.8-11.6c1.5-1.9,2.7-3.2,3.5-4
			c0.3-0.2,0.6-0.3,0.9-0.3c0.1,0,0.2,0,0.3,0.1c0.3,0.1,0.5,0.3,0.5,0.5c0.1,0.2,0.1,0.3,0.1,0.5c0,0.1,0,0.3-0.1,0.5
			c-4,6.2-9,12.4-14.9,18.7s-12.1,11.4-18.6,15.1c-2.7,1.5-5.6,2.4-8.6,2.7c-0.7,0.1-1.3,0.1-2,0.1c-3.4,0-6.4-1-9-3.1
			c-3-2.5-4.7-5.9-5.1-10.2v-1.8H554.2z M571.2,188.6l0.1,0.1c0,0.1,0,0.2,0.1,0.3c0.4-0.1,0.7-0.3,1.1-0.3l2.2-0.9
			c3.8-1.5,7.2-3.6,10.1-6.5c1-0.9,1.9-2.2,2.7-3.8C580.9,179.7,575.4,183.4,571.2,188.6z"/>
		<path class="st2" d="M630.2,197.9c0.4,0,0.7-0.1,0.9-0.2c0.3-0.1,0.5-0.2,0.6-0.4c0.1-0.1,0.3-0.1,0.3-0.2
			c4.8-2.9,9.8-6.5,15.2-10.8c2.3-1.8,4.3-3.3,6-4.5c0.6-0.2,1.1-0.3,1.6-0.3c0.6,0,1.2,0.1,1.8,0.3c0.3,0.1,0.5,0.3,0.8,0.5
			c0.2,0.2,0.4,0.5,0.4,0.8v0.3c0,0.1,0,0.3-0.1,0.4c-0.1,0.1-0.3,0.3-0.5,0.4c-6.2,4.8-13.1,9.8-21,14.9c-1.5,0.8-2.7,1.8-3.8,3
			c-0.4,0.4-0.5,1-0.5,1.5c0,5.9-1.3,11.3-4,16.2c-3.1,6.2-7.3,11.3-12.7,15.5c-4.7,3.6-10,6-16,7.1c-0.6,0.1-1.1,0.2-1.6,0.2
			c-0.9,0-1.8-0.1-2.6-0.4c-2.9-1-4.5-2.9-4.7-5.9c0-1.8,0.4-3.3,1.2-4.7c1-1.7,2.1-3.2,3.3-4.6c7.4-8.6,15.8-16,25.3-22.4
			c0.1,0,0.1,0,0.2-0.1c0.3-0.2,0.6-0.4,0.9-0.5c0.5-0.4,0.8-0.8,0.8-1.3c0-0.2-0.1-0.5-0.2-0.8c-0.7-1.8-1.7-3.3-3.1-4.6
			c-2-2-4-4.1-5.9-6.3c-2.3-2.4-3.9-5.1-4.8-8.1c-0.5-1.7-0.8-3.3-0.8-4.9c0-2.8,0.8-5.3,2.3-7.7c2.3-3.5,5.3-6.4,9-8.6
			c1.6-1.1,3.5-1.6,5.6-1.6h1.1c2.8,0.2,4.9,1.6,6.4,4.2c0.7,1.4,1.1,2.7,1.1,4.1c0,1.2-0.3,2.3-0.9,3.4c-0.3,0.5-0.6,0.8-1,0.8
			s-0.8-0.3-1.2-1l-0.2-0.4L629,171c-0.5-1.1-0.9-1.7-1.2-1.8s-0.5-0.2-0.7-0.2c-0.4,0-0.8,0.2-1.4,0.5c-3.5,1.8-6.2,4.4-8.1,7.8
			c-0.4,0.7-0.5,1.5-0.5,2.3c0,1.2,0.4,2.4,1.2,3.6c0.6,1,1.2,1.8,2,2.5c0.1,0.1,0.3,0.3,0.4,0.5c1,1,1.9,2,2.9,3
			C626.3,191.8,628.5,194.7,630.2,197.9z M620.1,211v-0.4c-0.1,0.1-0.3,0.1-0.3,0.2c-0.2,0.1-0.4,0.1-0.4,0.2
			c-8.4,5.9-15.7,13-22,21.1c-0.7,1-1.3,2-1.8,3.1c-0.1,0.1-0.1,0.3-0.2,0.3c-0.1,0.2-0.2,0.4-0.2,0.7v0.2c0,0.2,0.1,0.4,0.2,0.5
			c0.1,0.1,0.3,0.2,0.5,0.2h0.1c0.2,0,0.4,0,0.7-0.1c0.1-0.1,0.3-0.1,0.4-0.1c3.7-1.1,7-2.9,9.8-5.5c6.2-5.4,10.5-12.1,13.1-20
			C620.1,211.3,620.1,211.2,620.1,211z"/>
		<path class="st2" d="M672.2,136.6c-0.9,0.1-1.7,0.1-2.5,0.1c-1.6,0.1-3.2,0.2-4.7,0.3c-8.3,0.4-16.7,1.4-24.9,2.7
			c-2.2,0.4-4.4,0.9-6.5,1.5c-0.6,0.1-1.1,0.5-1.6,1c-0.9,1-1.8,1.5-2.7,1.5c-0.5,0-1-0.1-1.5-0.4c-0.8-0.4-1.4-1-1.7-1.7
			s-0.5-1.4-0.5-2.1v-0.7c0.4-1.8,1.4-3.1,3.1-4c1.5-0.8,3-1.3,4.7-1.5c4-0.7,8.1-1.2,12.2-1.4l2.2-0.2c6.4-0.5,12.7-0.8,19.1-0.9
			l6.6-0.2c1.2,0,2.1-0.6,2.5-1.8l2.4-5.3c0.4-1,0.9-1.9,1.3-2.7c0.8-1.5,1.5-3.1,2-4.8c0.5-2.3,2-3.7,4.4-4.1l2-0.4
			c0.5-0.1,1.1-0.3,1.6-0.3c0.5-0.1,1.1-0.2,1.6-0.2c0.4,0,0.7,0,1.1,0.1c1,0.2,1.5,0.7,1.5,1.5c0,0.2,0,0.4-0.1,0.7
			c-0.1,0.6-0.3,1.1-0.5,1.5c-1.2,2.3-2.2,4.6-3.2,6.9c-0.9,2.2-1.9,4.4-3,6.5c-0.3,0.7-0.4,1.1-0.4,1.3v0.1
			c0.1,0.2,0.6,0.3,1.4,0.3c2,0,4.1,0,6,0.1H710c1.8,0,3.5,0.1,5.3,0.3c1.5,0.3,2.6,1,3.2,2.1c0.6,1.1,0.9,2.1,0.9,3
			c0,0.5-0.1,1.1-0.2,1.6c-0.3,0.7-0.7,1-1.3,1c-0.1,0-0.3,0-0.4-0.1h-0.2l-7-0.9l-1.5-0.2c-1.4-0.2-2.8-0.4-4.3-0.4
			c-3.2,0-6.3-0.1-9.6-0.2c-3.1-0.1-6.2-0.2-9.2-0.2h-0.4c-0.6,0-1.1,0.1-1.4,0.3c-0.5,0.3-1,0.8-1.3,1.6c-2.6,5.9-5,11.9-7.4,18
			c-0.1,0.3-0.2,0.6-0.3,0.9c-3.5,8.8-7.2,17.5-11,26.1c-1.4,3.2-2.7,6.3-4.1,9.4c-5,13.2-10.3,27.6-16,43.3s-10.5,29.2-14.4,40.5
			c-0.1,0.4-0.2,0.7-0.3,1s-0.2,0.5-0.2,0.7s-0.1,0.3-0.1,0.4l-0.1,0.1v0.1c-0.1,0.1-0.1,0.1-0.1,0.2c0,0,0,0.1-0.1,0.2
			c0,0.1-0.1,0.2-0.2,0.4c-0.1,0.2-0.1,0.4-0.2,0.7c-0.1,0.3-0.1,0.6-0.2,1c-0.7,1.8-1,3.7-1,5.5c0,0.7,0,1.5,0.1,2.2v0.3
			c0,0.4-0.1,0.7-0.4,0.7c-0.2,0-0.4,0-0.7-0.1c-0.2-0.1-0.4-0.1-0.5-0.2c-4.7-3.1-7-7-7-11.9c0-0.8,0.1-1.6,0.2-2.4
			c0.7-4.1,1.9-8.1,3.4-12c2.6-6.9,5-13.5,7.1-19.8c2.1-6.7,4.6-13.6,7.4-20.8c6.4-16.3,13.2-32.4,20.2-48.3
			c1.5-3.3,2.9-6.6,4.3-9.9c1.8-4.2,3.6-8.5,5.2-12.7l4.2-10.5c0.6-1.2,1.2-2.6,1.8-4.2V136.6z"/>
		<path class="st2" d="M691.5,199c-0.7,0.4-1.2,0.8-1.5,1.2l-0.2,0.4c-1.5,1.7-2.9,3.4-4.4,5.2c-2,2.3-4,4.6-5.9,6.9
			c-1.8,2.1-3.8,4.1-5.9,5.8c-1,1-2.1,1.7-3.3,2.2c-0.9,0.4-1.8,0.5-2.6,0.5s-1.7-0.2-2.5-0.7c-1.5-0.8-2.5-2.2-3-4.1
			c-0.2-1-0.3-1.9-0.3-2.7s0.1-1.8,0.3-2.6c2.7-11.9,8.3-22.2,16.9-30.9c1.7-1.6,3.6-2.9,5.6-4c0.3-0.2,0.6-0.4,0.9-0.4
			c1.4-0.5,2.7-0.8,3.8-0.8c2.1,0,4,0.8,5.5,2.4c1,1.2,1.6,2.3,1.6,3.3s0.1,1.5,0.1,1.6c0,1.6-0.4,3.1-1.1,4.6c-0.1,0-0.1,0-0.1,0.1
			c-0.1,0.1-0.1,0.3-0.2,0.3c-0.2,0.3-0.4,0.5-0.6,0.7c-0.2,0.2-0.4,0.3-0.6,0.3c-0.1,0-0.3,0-0.4-0.1c-0.4-0.1-0.6-0.2-0.7-0.5
			c-0.1-0.3-0.2-0.6-0.3-0.9c0-0.1,0-0.3-0.1-0.4c-0.1-0.7-0.2-1.4-0.3-2.1c-0.1-0.7-0.3-1.1-0.4-1.2c-0.1,0-0.3-0.1-0.3-0.1
			c-0.2,0-0.6,0.2-1.1,0.5c-2.3,1.5-4.3,3.3-6,5.4c-5.1,6.2-8.9,13-11.4,20.7v0.2c-0.1,0.1-0.1,0.3-0.1,0.4v0.2c0,0.1,0,0.3,0.1,0.4
			c0.8-0.3,1.5-0.7,2.2-1.3c0.1-0.1,0.3-0.3,0.4-0.3c6.4-4.9,12.2-10.4,17.4-16.6c1.8-2,3.2-4.2,4.3-6.6c0.5-1.2,1.1-2.3,1.9-3.5
			l0.4-0.9c0.5-1,1.1-1.8,1.9-2.4c0.9-0.9,1.9-1.3,3-1.3c0.4,0,0.9,0.1,1.3,0.2c1.7,0.7,2.6,1.9,2.9,3.6l0.1,1c0,1-0.2,1.9-0.5,2.9
			c-0.7,1.7-1.4,3.3-2.1,4.9c-0.9,1.8-1.6,3.3-2.1,4.4c-0.7,1.2-1.2,2.5-1.8,3.7c-0.5,1.2-1.1,2.9-1.6,5.1c-0.6,1.9-1,3.8-1.3,5.7
			l-0.2,1.8v0.2c0,0.8,0.2,1.2,0.5,1.2s0.7-0.2,1.1-0.5c1.5-1.2,3-2.5,4.4-3.8c1-1.1,2-2.2,3.1-3.2c7.4-7,13.3-13.7,17.8-20.3
			c0.6-0.7,1.3-1.4,2.1-1.9c0.2-0.2,0.4-0.3,0.7-0.3s0.5,0.1,0.8,0.3s0.4,0.5,0.4,0.9c0,0.1,0,0.3-0.1,0.5c-0.4,0.9-0.8,1.7-1.4,2.4
			c-1.1,1.5-2.3,3.1-3.6,4.9c-3.6,5.1-7.5,10.3-11.7,15.8s-8,9.7-11.4,12.6c-1.5,1.2-3.1,1.8-4.6,1.8h-0.8c-1.9-0.2-3.6-1.2-4.9-3
			c-1.5-2.1-2.2-4.5-2.2-7v-0.3c0.1-3.7,0.8-7,1.9-9.9c0.1-0.5,0.3-1,0.4-1.4c0.1-0.1,0.1-0.3,0.1-0.5
			C691.3,199.7,691.4,199.4,691.5,199z M697.4,143.2h0.8c3.3,0,5.8,2.1,7.5,6.2c0.1,0.3,0.3,0.6,0.4,1c0.3,0.6,0.5,1.2,0.8,1.9
			c0.5,1.3,1.3,2,2.3,2.1h0.8c1.2,0,2.5-0.3,3.6-0.8c2-0.9,3.9-2,5.7-3.4c2.8-2.3,5.7-4,8.8-5.1h0.1c0.1-0.1,0.2-0.1,0.3-0.1
			c0.2-0.1,0.4-0.1,0.6-0.1c0.2,0,0.3,0.2,0.5,0.5c0.1,0.3,0.1,0.6,0.1,0.9c0,0.3-0.1,0.5-0.3,0.8c-0.9,1.4-1.9,2.5-3,3.3
			c-2,1.3-3.9,2.7-5.7,4.2l-4.4,3.3c-2.3,1.8-4.8,2.8-7.5,3.2c-0.4,0.1-0.7,0.1-1.1,0.1c-2.4,0-4.4-1.5-6-4.4
			c-0.1-0.3-0.3-0.6-0.4-1l-1.1-2.2c-0.5-1.2-1.2-1.8-2.2-1.8h-0.4c-1,0-2.1,0.2-3.1,0.7c-3.2,1.2-6.2,2.9-9,4.8
			c-2.2,1.4-4.4,2.8-6.7,4.2c-0.4,0.3-0.9,0.5-1.4,0.5c-0.7-0.1-1-0.4-1-1.1c0-0.2,0-0.5,0.1-0.9c0.3-0.8,0.7-1.5,1.1-2.1
			c1.2-1.8,2.5-3.4,3.8-4.8c4.2-4.5,8.8-7.6,13.7-9.4c0.4-0.1,0.9-0.3,1.3-0.3C696.7,143.2,697,143.2,697.4,143.2z"/>
		<path class="st2" d="M724.5,209.9c0.1-0.1,0.3-0.1,0.3-0.2c0.2-0.1,0.4-0.2,0.4-0.3c4.4-3.7,8.1-8.1,11.2-13
			c0.4-0.7,0.7-1.4,0.7-2.1c0-0.3,0-0.6-0.1-0.9c-0.1-0.7-0.2-1.3-0.2-2c0-1.3,0.3-2.6,1-3.8c0.8-1.4,2-2.2,3.6-2.3
			c2.2,0.1,3.5,1.2,3.8,3.3v1.2c0,1.6,0.4,2.9,1.3,3.8c1,0.9,2.2,1.3,3.5,1.3c1.2,0,2.6-0.4,4.2-1.1c3.1-1.5,6-3.3,8.6-5.4
			c2.6-2.1,4.5-3.8,5.9-5.2c0.4-0.4,0.8-0.5,1.2-0.5c0.3,0,0.6,0.1,0.9,0.4c0.3,0.4,0.4,0.7,0.4,1.1c0,0.4-0.2,0.7-0.5,1.1
			c-1.8,2.7-5.2,5.9-10.2,9.4c-5.1,3.6-10,5.4-14.9,5.4c-0.9,0-1.8-0.1-2.7-0.2c-0.3-0.1-0.5-0.2-0.8-0.2c-0.1,0-0.3,0-0.4,0.1
			c-0.3,0.1-0.5,0.3-0.7,0.8c-2,3.8-4.1,7.5-6.4,11c-1.3,2.2-2.8,4.3-4.4,6.3c-1.5,2-3.5,3.4-5.9,4.4c-1,0.4-2,0.5-2.9,0.5
			c-1.2,0-2.5-0.3-3.6-1c-1.9-1-3.2-2.8-4-5.3c-0.3-1.1-0.4-2.2-0.4-3.3c0-1,0.1-1.9,0.3-2.7c0.1-1,0.3-1.9,0.5-2.9
			c3.1-10.9,8.4-20.5,15.8-28.8c1.9-2,4-3.8,6.3-5.4c1.5-1,3.1-1.7,4.8-2.1c0.5-0.1,1-0.1,1.5-0.1c1.5,0,2.9,0.4,4.1,1.2
			c1.6,1.1,2.7,2.7,3.2,4.8c0.1,0.8,0.2,1.6,0.2,2.4c0,2.2-0.7,4.2-2,6c-0.2,0.4-0.5,0.6-0.8,0.8s-0.6,0.3-0.9,0.3
			c-0.1,0-0.3,0-0.5-0.1c-0.9-0.4-1.4-1-1.5-2c-0.1-0.9-0.4-1.7-0.8-2.5c-0.1-0.4-0.4-0.7-0.8-0.7c-0.2,0-0.4,0.1-0.7,0.2
			c-0.1,0.1-0.3,0.3-0.5,0.4l-1.1,0.9c-2.5,2.1-4.7,4.4-6.6,6.9c-4,5.5-7,11.5-9.2,17.9c-0.1,0.1-0.1,0.1-0.1,0.2
			c-0.1,0.2-0.2,0.4-0.2,0.6c0,0.2,0,0.3,0,0.5v0.9H724.5z"/>
		<path class="st2" d="M890.7,110.6c0.3,0.1,0.6,0.3,1,0.3c0.7,0.2,1.5,0.5,2.2,0.9c0.7,0.3,1,0.6,1.2,0.8c0.1,0.3,0.2,0.5,0.2,0.6
			c0,0.4-0.1,0.8-0.3,1.2c-0.9,2.2-2,4.2-3.3,6.2c-1.2,2-2.6,3.9-4,5.7c-0.3,0.5-0.6,1-1,1.4c-0.6,1-1.1,1.9-1.5,2.9
			c-0.3,0.6-2.2,3.8-5.7,9.6c-1.8,3.1-3.5,6.2-5.2,9.2l-2.2,4c-8.6,15.3-16.2,31.2-22.6,47.6c-0.7,1.7-1.6,4.1-2.6,7.3
			s-1.8,6.3-2.5,9.3s-1,5.3-1,7v0.4c0.1,0.2,0.1,0.4,0.1,0.5c0.1,0.1,0.1,0.3,0.1,0.4v0.1c0,0.1,0,0.3-0.1,0.3
			c-0.1,0.1-0.4,0.2-0.7,0.2c-0.4,0.1-0.7,0.1-1,0.1c-1.5,0-2.8-0.7-3.8-2.1c-2-2.4-3-5.1-3-8.1c0-1,0.1-1.9,0.3-3
			c0.8-4.2,1.9-8.2,3.3-12.2c0.2-0.6,0.4-1.2,0.7-1.9c0.1-0.4,0.2-0.7,0.3-1c-0.3,0.1-0.5,0.2-0.7,0.4c-0.1,0.2-0.3,0.3-0.4,0.5
			c0,0.1,0,0.3-0.1,0.3c-3.9,5.7-8,11.2-12.3,16.6c-1,1.2-2,2.4-3.2,3.4c-1.2,1.1-2.6,1.6-4,1.6c-0.9,0-1.8-0.2-2.6-0.7
			c-2.2-1.3-3.3-3.3-3.3-5.8v-0.5c0.1-1.5,0.4-2.9,0.8-4.4c2.3-9.4,6-18.3,11.1-26.5c1.8-2.9,3.8-5.6,6.3-8
			c3.1-3.1,6.7-4.9,10.9-5.4c0.6-0.1,1.1-0.2,1.6-0.2c2.6,0,4.6,1.4,5.8,4.2c0,0.1,0.1,0.1,0.2,0.1l0.2,0.2c0.4-0.8,0.8-1.6,1.2-2.4
			c0.9-1.8,1.7-3.5,2.5-5.3c3-6.8,6.3-13.4,9.8-19.8c1.1-2,2.2-4,3.2-5.9c6.3-11.1,11.4-19.3,15.3-24.6c1.8-2.9,4.2-4.8,7.3-5.7h1.5
			V110.6z M844.4,177.4c-1.4,0.5-2.6,1.2-3.5,2.1c-1.7,1.5-3.2,3.2-4.6,5.1c-4.3,5.9-7.7,12.3-10.1,19.2c-0.1,0.1-0.1,0.1-0.1,0.2
			c-0.1,0.1-0.2,0.3-0.2,0.5s0.1,0.4,0.2,0.7l0.9-0.9c0.6-0.7,1.2-1.3,1.9-2c4.3-4.8,8.4-10,12.2-15.4c0.9-1.1,1.7-2.2,2.5-3.4
			c0.9-1.2,1.3-2.5,1.3-3.8C844.8,178.9,844.6,178.2,844.4,177.4z"/>
		<path class="st2" d="M859.2,205.6c0.3-7.5,2.6-14.4,7-20.5c3.4-4.6,7.4-8.5,12.2-11.6c3-2,6.3-3.4,9.8-4.1
			c0.8-0.1,1.6-0.2,2.4-0.2c1.4,0,2.8,0.3,4.2,0.8c1.8,0.8,3,1.8,3.5,3s0.7,2.2,0.7,3c0,1-0.2,1.9-0.7,3c-0.8,1.6-1.9,3-3.3,4.3
			c-5.9,5.6-12.8,9-20.9,10.2c-1.1,0.1-1.8,0.7-2.2,1.6c-1.5,3.2-2.5,6.5-2.9,10v0.7c0,0.7,0.1,1.5,0.3,2.2c0.6,1.8,1.8,2.7,3.7,3
			c0.7,0.1,1.3,0.1,2,0.1c2.9,0,5.6-0.5,8.3-1.5c7.1-3,13-6.7,17.7-11.2s8.3-8.3,10.8-11.6c1.5-1.9,2.7-3.2,3.5-4
			c0.3-0.2,0.6-0.3,0.9-0.3c0.1,0,0.2,0,0.3,0.1c0.3,0.1,0.5,0.3,0.5,0.5c0.1,0.2,0.1,0.3,0.1,0.5c0,0.1,0,0.3-0.1,0.5
			c-4,6.2-9,12.4-14.9,18.7s-12.1,11.4-18.6,15.1c-2.7,1.5-5.6,2.4-8.6,2.7c-0.7,0.1-1.3,0.1-2,0.1c-3.4,0-6.4-1-9-3.1
			c-3-2.5-4.7-5.9-5.1-10.2v-1.8H859.2z M876.2,188.6l0.1,0.1c0,0.1,0,0.2,0.1,0.3c0.4-0.1,0.7-0.3,1.1-0.3l2.2-0.9
			c3.8-1.5,7.2-3.6,10.1-6.5c1-0.9,1.9-2.2,2.7-3.8C885.8,179.7,880.4,183.4,876.2,188.6z"/>
	</g>
</g>
<g id="layer_x5F_1">
</g>
</svg>
